<svg xmlns="http://www.w3.org/2000/svg" viewBox="0 0 212.26 288"><defs><style>.cls-1{fill:#f5f4f3;}.cls-2,.cls-3,.cls-5{fill:none;stroke:#000;}.cls-2,.cls-3,.cls-4,.cls-5{stroke-miterlimit:10;}.cls-2{stroke-width:2.52px;}.cls-3{stroke-width:3.5px;}.cls-4{stroke:#f1f1ef;stroke-width:2.76px;}.cls-5{stroke-width:4.13px;}</style></defs><g id="Capa_2" data-name="Capa 2"><g id="Graphic_Elements" data-name="Graphic Elements"><g id="Graphic_Elements-2" data-name="Graphic Elements"><path class="cls-1" d="M106.62,13.26h0a93,93,0,0,1,93,93V275a0,0,0,0,1,0,0h-186a0,0,0,0,1,0,0V106.25A93,93,0,0,1,106.62,13.26Z"/><path class="cls-2" d="M168.06,142.91A27,27,0,0,1,167,148a160,160,0,0,1-6.59,16.65,162.93,162.93,0,0,1-18,30.24c-6.44,8.41-14.15,16.4-23.59,21.43-3.57,1.9-8.74,4.43-13,4-37.21-3.93-58.11-62.89-58.11-62.89l-.87-2.62s-15.23-44.09,5.42-73.48a63.62,63.62,0,0,1,11.54,3.79C82.51,93,101,101,119.73,108.76c9.55,3.94,19.13,7.79,28.78,11.47,4.72,1.8,9.45,3.58,14.21,5.26,4.1,1.44,6.95,2.53,6.23,7.54C168.49,136.25,168.46,139.64,168.06,142.91Z"/><path d="M91.58,182.05c1.84-1.57,3.54-3.31,5.5-4.71a7.13,7.13,0,0,1,3.83-1.58,4.3,4.3,0,0,1,3,1.32c.52.49,1.31,3.14,2.12,2.78s1.15-2.6,1.73-3.1a5.26,5.26,0,0,1,3-1.31,8.18,8.18,0,0,1,4,1.18l.14.07c1.45.72,11.17,10.29,11.57,9.87-1.87,1.94-3.64,4.27-5.62,6.16a25.56,25.56,0,0,1-6.56,4.87,19.14,19.14,0,0,1-14.75,1c-5.28-2-9.25-6.49-13.51-10-.71-.58-2.41-1.55-.92-2.43s2.83-1.54,4.17-2.44A25.69,25.69,0,0,0,91.58,182.05Z"/><path d="M107.61,6.89a95.68,95.68,0,0,1,69.61,29.44c18.16,18.87,28.16,44.18,28.16,71.28v173.5H6.89V107.61A100.83,100.83,0,0,1,107.61,6.89m0-6.89A107.73,107.73,0,0,0,0,107.61V288H212.26V107.61C212.26,48.27,166.94,0,107.61,0Z"/><path d="M128.32,174.83a3.09,3.09,0,1,1-3.08,3.09A3.09,3.09,0,0,1,128.32,174.83Z"/><path d="M142.12,226.44v-29l.41-2.28c-17.71,23.11-32.83,25.4-36.64,25.4-14.58-1.53-26.66-11.48-36-23v30.35s1.92,29.34-56.3,24.94V275h186V251.87S142.46,256.75,142.12,226.44Z"/><path class="cls-3" d="M103.21,133.37c-.49,10.76-.67,17.88-.41,28.65a1.44,1.44,0,0,0,.31,1,1.42,1.42,0,0,0,1,.24l7.39,0"/><path class="cls-4" d="M49.28,153.44a6.52,6.52,0,1,1-6.52-6.52A6.52,6.52,0,0,1,49.28,153.44Z"/><path class="cls-4" d="M174.82,153.44a6.52,6.52,0,1,1-6.52-6.52A6.52,6.52,0,0,1,174.82,153.44Z"/><path d="M156.48,191.59a34.18,34.18,0,0,0-2.16,2.73,9.24,9.24,0,0,0-2,5.24,5.31,5.31,0,0,0,2.62,4.53,4.72,4.72,0,0,0,5.15-.38,15.6,15.6,0,0,1,1.39-1.19,2.78,2.78,0,0,1,2.79-.05c4.84,2.75-.61,11.28.29,15.37.63,2.84,2.37,5.6,5.06,6.69,4.06,1.63,8.82-1.17,10.89-5,2.44-4.56,2.15-9.15.71-13.95-.67-2.26-4.52-8.73-1.67-10.68,1.58-1.09,2.85.94,4.55,1.06,2.27.15,4.52-1.88,4-4.25-.68-3.09-5.43-3.9-6-7s1.67-4.54,3.66-6.22a6.39,6.39,0,0,0,2.25-6.28,4.64,4.64,0,0,0-5.34-3.4c-1,.25-1.83.88-2.81,1.15a5.16,5.16,0,0,1-5.12-1.83c-2.38-2.77-1.69-7-6.53-7-3.43,0-6.09,3.46-6.57,6.6-.59,3.87,0,7.84.43,11.7C162.65,185.11,159.6,188,156.48,191.59Z"/><path d="M106.62,13.26h0a93,93,0,0,0-93,93s35.65,47.19,186,43.13V106.25A93,93,0,0,0,106.62,13.26Zm51.84,63.43a154.61,154.61,0,0,1-44.84,7C81,83.71,62.88,71.56,61.84,70.85L63,69.11l1.19-1.74c.34.24,34.48,23,92.94,5.31a71.7,71.7,0,0,0,18.73-10L178.5,66A75,75,0,0,1,158.46,76.69Z"/><path d="M48.49,185.45c3.36,5.52,7.61,17.71,7.8,24.1.14,4.7-3.07,9.79-7.75,10.15a8.08,8.08,0,0,1-7.37-4.06,10.31,10.31,0,0,1-.61-8.57,22.66,22.66,0,0,0,1.6-4.51c1.65-12.48-14.94,2.23-19.74-3.7a7.1,7.1,0,0,1-.51-8c1.67-2.71,4.91-3.9,7.76-5.31s5.82-3.7,5.91-6.88c.08-3-2.41-5.45-2.68-8.4-.65-7.19,9.73-10.95,14.7-6.79a8.8,8.8,0,0,1,2.75,8.94c-.7,2.44-2.44,4.47-3.23,6.89S47.33,183.55,48.49,185.45Z"/><path class="cls-5" d="M106.62,13.26h0a93,93,0,0,1,93,93V275a0,0,0,0,1,0,0h-186a0,0,0,0,1,0,0V106.25A93,93,0,0,1,106.62,13.26Z"/></g></g></g></svg>